<?xml version="1.0" encoding="utf-8"?>
<!-- Generator: Adobe Illustrator 26.0.3, SVG Export Plug-In . SVG Version: 6.00 Build 0)  -->
<svg version="1.1" id="Capa_1" xmlns="http://www.w3.org/2000/svg" xmlns:xlink="http://www.w3.org/1999/xlink" x="0px" y="0px"
	 viewBox="0 0 20 20" style="enable-background:new 0 0 20 20;" xml:space="preserve">
<g>
	<g>
		<path d="M1,8.5C1,12.6,4.4,16,8.5,16c1.9,0,3.6-0.7,5-1.9l4.8,4.8c0.1,0.1,0.2,0.1,0.3,0.1c0.1,0,0.2,0,0.3-0.1
			c0.2-0.2,0.2-0.5,0-0.6l-4.8-4.8c1.2-1.3,1.9-3.1,1.9-5C16,4.4,12.6,1,8.5,1S1,4.4,1,8.5z M15.1,8.5c0,3.6-3,6.6-6.6,6.6
			s-6.6-3-6.6-6.6s3-6.6,6.6-6.6S15.1,4.9,15.1,8.5z"/>
	</g>
</g>
</svg>
