<?xml version="1.0" encoding="utf-8"?>
<!-- Generator: Adobe Illustrator 26.0.3, SVG Export Plug-In . SVG Version: 6.00 Build 0)  -->
<svg version="1.1" id="Capa_1" xmlns="http://www.w3.org/2000/svg" xmlns:xlink="http://www.w3.org/1999/xlink" x="0px" y="0px"
	 viewBox="0 0 20 20" style="enable-background:new 0 0 20 20;" xml:space="preserve">
<style type="text/css">
	.st0{stroke:#FFFDFD;stroke-miterlimit:10;}
</style>
<path d="M18.9,18.3l-4.8-4.8c1.2-1.3,1.9-3.1,1.9-5C16,4.4,12.6,1,8.5,1S1,4.4,1,8.5S4.4,16,8.5,16c1.9,0,3.6-0.7,5-1.9l4.8,4.8
	c0.1,0.1,0.2,0.1,0.3,0.1c0.1,0,0.2,0,0.3-0.1C19.1,18.7,19.1,18.4,18.9,18.3z M8.5,15.1c0.1,0,0.1,0,0.2,0
	C8.6,15.1,8.6,15.1,8.5,15.1C8.5,15.1,8.5,15.1,8.5,15.1z"/>
<circle class="st0" cx="8.5" cy="8.4" r="6.5"/>
</svg>
