<?xml version="1.0" encoding="UTF-8"?>
<svg version="1.1" xmlns="http://www.w3.org/2000/svg" width="64" height="64">
<path d="M0 0 C8.34468007 4.97590182 13.53387008 11.86345977 16.109375 21.2578125 C17.10789012 32.35758522 16.45884702 41.9922991 9.359375 51.0703125 C3.70168013 57.1280464 -3.34488592 60.84888618 -11.625 61.59375 C-22.35447774 61.83515993 -31.19802606 60.58332943 -39.359375 52.9609375 C-46.75303791 44.73737365 -48.47252567 36.02335615 -48.203125 25.24609375 C-47.72879865 16.86039919 -44.11592977 9.8548755 -37.890625 4.2578125 C-27.15195714 -3.81766573 -12.32399863 -5.91386512 0 0 Z " fill="#F6AA42" transform="translate(47.890625,2.7421875)"/>
<path d="M0 0 C6.09282874 4.84656832 11.20542398 10.42561133 16.42578125 16.171875 C17.91808512 17.81137121 19.43237143 19.43237143 21 21 C20.66663303 29.33417424 16.74605529 36.12335255 11 42 C6.22008357 45.80337436 1.32803601 48.55630278 -5 48 C-7.85163733 46.64038582 -10.07457589 44.7643187 -12.4375 42.6875 C-13.06076172 42.17509766 -13.68402344 41.66269531 -14.32617188 41.13476562 C-18.79923115 37.4015377 -18.79923115 37.4015377 -20 35 C-13.4 35 -6.8 35 0 35 C0 32.69 0 30.38 0 28 C-4.29 28 -8.58 28 -13 28 C-13 25.36 -13 22.72 -13 20 C-9.37 20 -5.74 20 -2 20 C-2 18.02 -2 16.04 -2 14 C-5.63 14 -9.26 14 -13 14 C-13 11.36 -13 8.72 -13 6 C-8.71 6 -4.42 6 0 6 C0 4.02 0 2.04 0 0 Z " fill="#CE9240" transform="translate(43,15)"/>
<path d="M0 0 C7.26 0 14.52 0 22 0 C22 2.31 22 4.62 22 7 C17.71 7 13.42 7 9 7 C9 9.64 9 12.28 9 15 C12.63 15 16.26 15 20 15 C20 16.98 20 18.96 20 21 C16.37 21 12.74 21 9 21 C9 23.64 9 26.28 9 29 C13.29 29 17.58 29 22 29 C22 31.31 22 33.62 22 36 C14.74 36 7.48 36 0 36 C0 24.12 0 12.24 0 0 Z " fill="#FCF7F1" transform="translate(21,14)"/>
</svg>
